Coordinates
version=1
nRows=22
nColumns=24
inDegrees=yes

Units are S.I. units (second, meters, Newtons, ...)
Angles are in degrees.

endheader
time	pelvis_tilt	pelvis_list	pelvis_rotation	pelvis_tx	pelvis_ty	pelvis_tz	hip_flexion_r	hip_adduction_r	hip_rotation_r	knee_angle_r	ankle_angle_r	subtalar_angle_r	mtp_angle_r	hip_flexion_l	hip_adduction_l	hip_rotation_l	knee_angle_l	ankle_angle_l	subtalar_angle_l	mtp_angle_l	lumbar_extension	lumbar_bending	lumbar_rotation
      6.58000000	      4.21641859	      1.99624178	      2.47121909	     -1.61750160	      0.89252214	      0.25880256	      2.98797519	      4.28079693	      8.34913332	    -13.42133422	     12.99760402	     -4.16349280	      0.00000000	     18.34883672	      0.48322201	     -4.99132737	    -71.43276150	    -12.98094257	     -2.03050159	      0.00000000	    -24.52292393	     -2.97654154	    -14.67817637
      6.59000000	      4.17802808	      2.15220949	      2.22687662	     -1.60841374	      0.89309751	      0.25904932	      2.18702853	      4.11436982	      8.49207300	    -13.05900386	     13.43713039	     -3.98613600	      0.00000000	     19.52099958	      0.64273304	     -5.09556687	    -70.89626630	     -9.42165540	     -0.47890134	      0.00000000	    -24.63580506	     -3.29960801	    -14.26402617
      6.60000000	      4.12815034	      2.36384403	      2.02067211	     -1.59936942	      0.89359499	      0.25915219	      1.40120660	      3.87379541	      8.64566998	    -12.70607008	     13.91100955	     -3.79095727	      0.00000000	     20.61181791	      0.90814945	     -5.15709143	    -70.03378548	     -5.97473615	      0.96279940	      0.00000000	    -24.75169862	     -3.65691267	    -13.97877731
      6.61000000	      4.07345864	      2.57267053	      1.85600374	     -1.59035386	      0.89397540	      0.25913867	      0.62405854	      3.62928070	      8.77383559	    -12.35529688	     14.37561873	     -3.62670316	      0.00000000	     21.62592515	      1.20638358	     -5.17132473	    -68.88732133	     -2.78789393	      2.17553446	      0.00000000	    -24.87137656	     -3.98740862	    -13.74768763
      6.62000000	      4.01248505	      2.76579290	      1.72861581	     -1.58134046	      0.89422704	      0.25899975	     -0.14640765	      3.39541995	      8.89193432	    -12.00326839	     14.81849292	     -3.50800012	      0.00000000	     22.56059015	      1.52323532	     -5.13974001	    -67.47377872	      0.02826288	      3.08181505	      0.00000000	    -24.98867350	     -4.27339311	    -13.56173353
      6.63000000	      3.93186927	      2.93744234	      1.64021040	     -1.57231044	      0.89429498	      0.25878760	     -0.89631554	      3.18523730	      8.99164997	    -11.65226751	     15.26528943	     -3.45185789	      0.00000000	     23.43200511	      1.84366917	     -5.06758616	    -65.82422463	      2.42113212	      3.64563517	      0.00000000	    -25.08708339	     -4.52814406	    -13.42861953
      6.64000000	      3.88688033	      3.04498925	      1.55078929	     -1.56325143	      0.89426615	      0.25848313	     -1.69326479	      3.03534236	      9.09961382	    -11.28352316	     15.66275817	     -3.39304722	      0.00000000	     24.17085057	      2.11536426	     -4.95991980	    -63.95658062	      4.42041156	      3.94183492	      0.00000000	    -25.22409231	     -4.68524022	    -13.26128576
      6.65000000	      3.81681143	      3.13340303	      1.48286933	     -1.55413799	      0.89405412	      0.25807602	     -2.47118027	      2.90027045	      9.19825347	    -10.90740012	     16.06484009	     -3.37753820	      0.00000000	     24.83748442	      2.39441642	     -4.81006001	    -61.87622006	      6.01724425	      3.98566443	      0.00000000	    -25.32620785	     -4.79595154	    -13.13642013
      6.66000000	      3.83114372	      3.19144056	      1.40124244	     -1.54493374	      0.89384316	      0.25758691	     -3.36892258	      2.78375933	      9.31894073	    -10.48972887	     16.43729863	     -3.31299629	      0.00000000	     25.29451616	      2.66118970	     -4.61954855	    -59.57953247	      7.25868642	      3.84552458	      0.00000000	    -25.52356312	     -4.86533282	    -12.96188382
      6.67000000	      3.77392291	      3.21210095	      1.34335035	     -1.53566425	      0.89337470	      0.25702596	     -4.19162401	      2.70291635	      9.39246112	    -10.07383378	     16.82530433	     -3.26081021	      0.00000000	     25.73161367	      2.90770059	     -4.37683811	    -57.10522394	      8.20736498	      3.59731059	      0.00000000	    -25.62404744	     -4.88763428	    -12.80789680
      6.68000000	      3.70015701	      3.21672144	      1.27367963	     -1.52630247	      0.89277385	      0.25643990	     -5.00110615	      2.63065726	      9.45883854	     -9.66074493	     17.20954395	     -3.16586408	      0.00000000	     26.06428064	      3.14422025	     -4.09791685	    -54.42852403	      8.91808099	      3.32028079	      0.00000000	    -25.68884523	     -4.89286597	    -12.62968004
      6.69000000	      3.61791532	      3.21609797	      1.19203775	     -1.51684047	      0.89207040	      0.25582749	     -5.80528115	      2.55560038	      9.50415778	     -9.25230345	     17.59676480	     -3.03380957	      0.00000000	     26.27382339	      3.37880468	     -3.78880240	    -51.53654830	      9.41722035	      3.02240257	      0.00000000	    -25.73399826	     -4.90131809	    -12.42156499
      6.70000000	      3.51310515	      3.21965266	      1.09188059	     -1.50728279	      0.89126756	      0.25518823	     -6.58320572	      2.46551483	      9.54785684	     -8.85833690	     17.97920190	     -2.86141400	      0.00000000	     26.36717053	      3.61635177	     -3.45997530	    -48.41677015	      9.71441346	      2.69978776	      0.00000000	    -25.74322441	     -4.91991931	    -12.17981439
      6.71000000	      3.39320727	      3.22782275	      0.96182094	     -1.49761339	      0.89038655	      0.25455990	     -7.33656035	      2.36191523	      9.59407632	     -8.49100787	     18.35601439	     -2.65427184	      0.00000000	     26.32640893	      3.84665600	     -3.12815934	    -45.05914592	      9.81868577	      2.32372187	      0.00000000	    -25.72097649	     -4.95996257	    -11.89336531
      6.72000000	      3.25902482	      3.23236415	      0.79015408	     -1.48782070	      0.88942820	      0.25395894	     -8.05989755	      2.25255313	      9.65366112	     -8.16167693	     18.72040714	     -2.41715213	      0.00000000	     26.14739944	      4.05177074	     -2.81020141	    -41.46526282	      9.73210985	      1.86357753	      0.00000000	    -25.66487628	     -5.01452017	    -11.54726484
      6.73000000	      3.02289160	      3.21691436	      0.58673912	     -1.47781960	      0.88825891	      0.25339189	     -8.67153133	      2.15620376	      9.76072617	     -7.85376593	     19.04238631	     -2.21104855	      0.00000000	     25.93296783	      4.20431904	     -2.54365052	    -37.66611566	      9.44855667	      1.29824760	      0.00000000	    -25.43765286	     -5.06635871	    -11.17607113
      6.74000000	      3.01276217	      3.18394886	      0.27382389	     -1.46776908	      0.88733086	      0.25293736	     -9.47797572	      2.06208303	      9.83550114	     -7.63573951	     19.38279208	     -1.86032579	      0.00000000	     25.31973890	      4.29325056	     -2.32660273	    -33.65116108	      9.00225357	      0.64502440	      0.00000000	    -25.50812632	     -5.13488052	    -10.62620033
      6.75000000	      2.85802928	      3.07971677	     -0.08181576	     -1.45749489	      0.88608791	      0.25252433	    -10.11523365	      2.03283375	      9.99712176	     -7.46095301	     19.66468540	     -1.57279167	      0.00000000	     24.76544674	      4.26898558	     -2.21137441	    -29.54849946	      8.34577273	     -0.16031075	      0.00000000	    -25.34664167	     -5.13950170	    -10.03263501
      6.76000000	      2.56493956	      2.83351782	     -0.53342447	     -1.44717738	      0.88452500	      0.25222240	    -10.53223262	      2.14187284	     10.33723583	     -7.42225707	     19.90215886	     -1.31450192	      0.00000000	     24.31649422	      4.03999846	     -2.21255482	    -25.47244232	      7.54588991	     -0.99874189	      0.00000000	    -25.00563643	     -5.01816557	     -9.27679184
      6.77000000	      2.52272062	      2.62379165	     -1.03911563	     -1.43648802	      0.88321175	      0.25197644	    -11.25991416	      2.18891572	     10.62989625	     -7.34983668	     20.10122669	     -1.03529653	      0.00000000	     23.51388886	      3.80803504	     -2.53002788	    -21.41095154	      6.65502741	     -1.81147692	      0.00000000	    -24.91594583	     -4.94924346	     -8.51805885
      6.78000000	      2.33804577	      2.23994387	     -1.63254517	     -1.42582236	      0.88157190	      0.25180101	    -11.74200193	      2.40576524	     11.09150814	     -7.45964223	     20.28343187	     -0.72636769	      0.00000000	     22.92158234	      3.35099416	     -3.11357682	    -17.63655533	      5.83073527	     -2.38695553	      0.00000000	    -24.66176051	     -4.69796816	     -7.61503122
      6.79000000	      2.22101334	      1.87039205	     -2.25689849	     -1.41495441	      0.87999387	      0.25163816	    -12.27409032	      2.59417579	     11.58245934	     -7.64838991	     20.41667936	     -0.46448219	      0.00000000	     22.27604717	      2.90585530	     -3.98913388	    -14.15451928	      5.03299107	     -2.68259762	      0.00000000	    -24.48137656	     -4.48048940	     -6.70207639
